<svg width="17" height="16" viewBox="0 0 17 16" fill="none" xmlns="http://www.w3.org/2000/svg">
  <path d="M11.2489 4.8606C12.5275 4.8606 13.7537 5.36838 14.6578 6.27225C15.5619 7.17612 16.0699 8.40203 16.0699 9.68029V15.3033H12.8559V9.68029C12.8559 9.2542 12.6866 8.84556 12.3852 8.54428C12.0838 8.24299 11.6751 8.07372 11.2489 8.07372C10.8227 8.07372 10.414 8.24299 10.1126 8.54428C9.81122 8.84556 9.64192 9.2542 9.64192 9.68029V15.3033H6.42795V9.68029C6.42795 8.40203 6.93587 7.17612 7.83997 6.27225C8.74408 5.36838 9.97031 4.8606 11.2489 4.8606Z" fill="white"/>
  <path d="M3.21397 5.66382H0V15.3032H3.21397V5.66382Z" fill="white"/>
  <path d="M1.60698 3.25474C2.4945 3.25474 3.21397 2.53527 3.21397 1.64776C3.21397 0.760243 2.4945 0.0407715 1.60698 0.0407715C0.719471 0.0407715 0 0.760243 0 1.64776C0 2.53527 0.719471 3.25474 1.60698 3.25474Z" fill="white"/>
</svg>
