<svg width="17" height="14" viewBox="0 0 17 14" fill="none" xmlns="http://www.w3.org/2000/svg">
  <path d="M16.6022 0.0385924C15.8795 0.548205 15.0794 0.937976 14.2326 1.1929C13.7781 0.67045 13.1741 0.300153 12.5022 0.132088C11.8304 -0.035977 11.1231 0.0062987 10.476 0.253198C9.829 0.500096 9.27342 0.939706 8.88443 1.51257C8.49544 2.08543 8.29181 2.76391 8.3011 3.45624V4.21069C6.97491 4.24507 5.6608 3.95102 4.47581 3.35473C3.29081 2.75844 2.27172 1.87842 1.50929 0.79304C1.50929 0.79304 -1.50929 7.58307 5.28252 10.6009C3.72835 11.6556 1.87692 12.1844 0 12.1098C6.79181 15.882 15.0929 12.1098 15.0929 3.43361C15.0922 3.22346 15.072 3.01383 15.0325 2.80742C15.8027 2.04806 16.3462 1.08932 16.6022 0.0385924Z" fill="white"/>
</svg>
